<svg width="140" height="56" viewBox="0 0 140 56" fill="none" xmlns="http://www.w3.org/2000/svg">
<path d="M13.984 42.658C13.452 42.8353 12.7553 42.9873 11.894 43.114C11.058 43.2407 10.26 43.304 9.5 43.304C7.11867 43.304 5.37067 42.9113 4.256 42.126C3.14133 41.3407 2.394 40.036 2.014 38.212C1.65933 36.388 1.482 33.6267 1.482 29.928C1.482 26.2547 1.672 23.506 2.052 21.682C2.432 19.8327 3.17933 18.5153 4.294 17.73C5.434 16.9447 7.16933 16.552 9.5 16.552C10.336 16.552 11.1593 16.6153 11.97 16.742C12.806 16.8433 13.452 16.9827 13.908 17.16V21.416C12.4387 21.2387 11.324 21.15 10.564 21.15C9.272 21.15 8.37267 21.3273 7.866 21.682C7.38467 22.0113 7.068 22.7333 6.916 23.848C6.78933 24.9627 6.726 26.9893 6.726 29.928C6.726 32.8667 6.78933 34.8933 6.916 36.008C7.068 37.1227 7.38467 37.8573 7.866 38.212C8.37267 38.5413 9.272 38.706 10.564 38.706C11.7293 38.706 12.8693 38.6173 13.984 38.44V42.658ZM25.5924 32.512C25.5924 30.8907 25.5544 29.776 25.4784 29.168C25.4024 28.56 25.2504 28.18 25.0224 28.028C24.7944 27.8507 24.3637 27.762 23.7304 27.762C23.0717 27.762 22.6031 27.8887 22.3244 28.142C22.0711 28.3953 21.9064 28.8767 21.8304 29.586C21.7544 30.27 21.7164 31.4353 21.7164 33.082V43H16.8144V14.766H21.7164V25.862H21.9824C22.3117 24.9247 22.8311 24.266 23.5404 23.886C24.2751 23.506 25.1491 23.316 26.1624 23.316C27.3784 23.316 28.2904 23.5567 28.8984 24.038C29.5317 24.5193 29.9497 25.2413 30.1524 26.204C30.3804 27.1667 30.4944 28.4967 30.4944 30.194V43H25.5924V32.512ZM34.1498 43V16.856H46.8418V21.454H39.3938V27.496H45.8158V32.094H39.3938V38.402H46.8418V43H34.1498ZM56.566 43.304C55.502 43.304 54.3366 43.2407 53.07 43.114C51.8286 43.0127 50.7266 42.8607 49.764 42.658V38.402C52.348 38.6047 54.134 38.706 55.122 38.706C56.0086 38.706 56.68 38.6553 57.136 38.554C57.592 38.4527 57.934 38.2753 58.162 38.022C58.3646 37.8193 58.4913 37.5407 58.542 37.186C58.618 36.806 58.656 36.274 58.656 35.59C58.656 34.6527 58.6053 33.994 58.504 33.614C58.4026 33.2087 58.1873 32.9173 57.858 32.74C57.554 32.5373 57.0093 32.36 56.224 32.208L52.652 31.562C51.3853 31.334 50.5113 30.6373 50.03 29.472C49.5486 28.3067 49.308 26.622 49.308 24.418C49.308 22.2647 49.612 20.618 50.22 19.478C50.8533 18.338 51.7146 17.5653 52.804 17.16C53.8933 16.7547 55.274 16.552 56.946 16.552C58.1113 16.552 59.226 16.628 60.29 16.78C61.3793 16.932 62.266 17.084 62.95 17.236V21.492C61.582 21.264 60.0493 21.15 58.352 21.15C57.44 21.15 56.7306 21.188 56.224 21.264C55.7426 21.34 55.388 21.4793 55.16 21.682C54.8813 21.8847 54.704 22.176 54.628 22.556C54.552 22.936 54.514 23.4933 54.514 24.228C54.514 25.0133 54.552 25.5833 54.628 25.938C54.7293 26.2927 54.894 26.546 55.122 26.698C55.35 26.85 55.7426 26.9767 56.3 27.078L59.644 27.686C60.5306 27.8127 61.278 28.0913 61.886 28.522C62.5193 28.9273 63.0133 29.6113 63.368 30.574C63.7226 31.5873 63.9 33.0187 63.9 34.868C63.9 37.2747 63.6086 39.086 63.026 40.302C62.4433 41.518 61.6326 42.3287 60.594 42.734C59.5806 43.114 58.238 43.304 56.566 43.304ZM73.4136 43.304C72.3496 43.304 71.1843 43.2407 69.9176 43.114C68.6763 43.0127 67.5743 42.8607 66.6116 42.658V38.402C69.1956 38.6047 70.9816 38.706 71.9696 38.706C72.8563 38.706 73.5276 38.6553 73.9836 38.554C74.4396 38.4527 74.7816 38.2753 75.0096 38.022C75.2123 37.8193 75.339 37.5407 75.3896 37.186C75.4656 36.806 75.5036 36.274 75.5036 35.59C75.5036 34.6527 75.453 33.994 75.3516 33.614C75.2503 33.2087 75.035 32.9173 74.7056 32.74C74.4016 32.5373 73.857 32.36 73.0716 32.208L69.4996 31.562C68.233 31.334 67.359 30.6373 66.8776 29.472C66.3963 28.3067 66.1556 26.622 66.1556 24.418C66.1556 22.2647 66.4596 20.618 67.0676 19.478C67.701 18.338 68.5623 17.5653 69.6516 17.16C70.741 16.7547 72.1216 16.552 73.7936 16.552C74.959 16.552 76.0736 16.628 77.1376 16.78C78.227 16.932 79.1136 17.084 79.7976 17.236V21.492C78.4296 21.264 76.897 21.15 75.1996 21.15C74.2876 21.15 73.5783 21.188 73.0716 21.264C72.5903 21.34 72.2356 21.4793 72.0076 21.682C71.729 21.8847 71.5516 22.176 71.4756 22.556C71.3996 22.936 71.3616 23.4933 71.3616 24.228C71.3616 25.0133 71.3996 25.5833 71.4756 25.938C71.577 26.2927 71.7416 26.546 71.9696 26.698C72.1976 26.85 72.5903 26.9767 73.1476 27.078L76.4916 27.686C77.3783 27.8127 78.1256 28.0913 78.7336 28.522C79.367 28.9273 79.861 29.6113 80.2156 30.574C80.5703 31.5873 80.7476 33.0187 80.7476 34.868C80.7476 37.2747 80.4563 39.086 79.8736 40.302C79.291 41.518 78.4803 42.3287 77.4416 42.734C76.4283 43.114 75.0856 43.304 73.4136 43.304Z" fill="white"/>
<path d="M59.311 54.931H56.671C56.5757 54.931 56.528 54.887 56.528 54.799V54.238C56.528 54.15 56.5757 54.106 56.671 54.106H57.507V47.858H56.671C56.5757 47.858 56.528 47.814 56.528 47.726V47.165C56.528 47.077 56.5757 47.033 56.671 47.033H59.311C59.4063 47.033 59.454 47.077 59.454 47.165V47.726C59.454 47.814 59.4063 47.858 59.311 47.858H58.464V54.106H59.311C59.4063 54.106 59.454 54.15 59.454 54.238V54.799C59.454 54.887 59.4063 54.931 59.311 54.931ZM63.2426 54.931H60.6026C60.5073 54.931 60.4596 54.887 60.4596 54.799V54.238C60.4596 54.15 60.5073 54.106 60.6026 54.106H61.4386V47.858H60.6026C60.5073 47.858 60.4596 47.814 60.4596 47.726V47.165C60.4596 47.077 60.5073 47.033 60.6026 47.033H63.2426C63.338 47.033 63.3856 47.077 63.3856 47.165V47.726C63.3856 47.814 63.338 47.858 63.2426 47.858H62.3956V54.106H63.2426C63.338 54.106 63.3856 54.15 63.3856 54.238V54.799C63.3856 54.887 63.338 54.931 63.2426 54.931ZM69.175 54.931H66.612C66.5167 54.931 66.469 54.8834 66.469 54.788V54.249C66.469 54.1537 66.5167 54.106 66.612 54.106H67.448V47.858H65.369V49.024C65.369 49.1267 65.3177 49.178 65.215 49.178H64.599C64.4963 49.178 64.445 49.1267 64.445 49.024V47.176C64.445 47.0807 64.4963 47.033 64.599 47.033H71.232C71.3347 47.033 71.386 47.0807 71.386 47.176V49.024C71.386 49.1267 71.3347 49.178 71.232 49.178H70.605C70.5097 49.178 70.462 49.1267 70.462 49.024V47.858H68.405V54.106H69.175C69.2777 54.106 69.329 54.1537 69.329 54.249V54.788C69.329 54.8834 69.2777 54.931 69.175 54.931ZM79.039 54.931H78.082C77.818 54.931 77.598 54.755 77.422 54.403L76.388 52.302C76.3 52.1187 76.2047 51.983 76.102 51.895C76.0067 51.807 75.871 51.7594 75.695 51.752H74.298V54.106H75.288C75.376 54.106 75.42 54.15 75.42 54.238V54.799C75.42 54.887 75.376 54.931 75.288 54.931H72.505C72.4097 54.931 72.362 54.887 72.362 54.799V54.238C72.362 54.15 72.4097 54.106 72.505 54.106H73.341V47.858H72.505C72.4097 47.858 72.362 47.814 72.362 47.726V47.165C72.362 47.077 72.4097 47.033 72.505 47.033H75.893C76.6777 47.033 77.3157 47.242 77.807 47.66C78.2983 48.0707 78.544 48.6537 78.544 49.409C78.544 50.5604 78.005 51.279 76.927 51.565C77.0663 51.675 77.2387 51.9207 77.444 52.302L78.368 54.106H79.039C79.127 54.106 79.171 54.15 79.171 54.238V54.799C79.171 54.887 79.127 54.931 79.039 54.931ZM74.298 50.971H75.706C76.9527 50.971 77.576 50.4614 77.576 49.442C77.576 48.386 76.9527 47.858 75.706 47.858H74.298V50.971Z" fill="white"/>
</svg>
